<mxfile host="Electron" agent="Mozilla/5.0 (Windows NT 10.0; Win64; x64) AppleWebKit/537.36 (KHTML, like Gecko) draw.io/24.7.17 Chrome/128.0.6613.36 Electron/32.0.1 Safari/537.36" version="24.7.17">
  <diagram name="PÃ¡gina-1" id="kKBKMEyVlORLd3pp8Gom">
    <mxGraphModel dx="1434" dy="2005" grid="1" gridSize="10" guides="1" tooltips="1" connect="1" arrows="1" fold="1" page="1" pageScale="1" pageWidth="827" pageHeight="1169" math="0" shadow="0">
      <root>
        <mxCell id="0" />
        <mxCell id="1" parent="0" />
        <mxCell id="7BqX2QthyGYcZfOtiyWT-3" value="&amp;lt;&amp;lt;Component&amp;gt;&amp;gt;&lt;div&gt;&amp;lt;&amp;lt;C4 Container&lt;span style=&quot;background-color: initial;&quot;&gt;&amp;gt;&amp;gt;&lt;/span&gt;&lt;/div&gt;&lt;div style=&quot;padding-right: 0px;&quot;&gt;&lt;b&gt;SPA&lt;/b&gt;&lt;/div&gt;" style="html=1;dropTarget=0;whiteSpace=wrap;horizontal=1;verticalAlign=top;fillColor=#1ba1e2;fontColor=#ffffff;strokeColor=default;" parent="1" vertex="1">
          <mxGeometry x="100" y="60" width="900" height="820" as="geometry" />
        </mxCell>
        <mxCell id="7BqX2QthyGYcZfOtiyWT-4" value="" style="shape=module;jettyWidth=8;jettyHeight=4;" parent="7BqX2QthyGYcZfOtiyWT-3" vertex="1">
          <mxGeometry x="1" width="20" height="20" relative="1" as="geometry">
            <mxPoint x="-27" y="7" as="offset" />
          </mxGeometry>
        </mxCell>
        <mxCell id="7BqX2QthyGYcZfOtiyWT-25" value="" style="whiteSpace=wrap;html=1;aspect=fixed;fillColor=#1ba1e2;fontColor=#ffffff;strokeColor=default;" parent="1" vertex="1">
          <mxGeometry x="135" y="-30" width="20" height="20" as="geometry" />
        </mxCell>
        <mxCell id="7BqX2QthyGYcZfOtiyWT-26" value="" style="whiteSpace=wrap;html=1;aspect=fixed;fillColor=#1ba1e2;fontColor=#ffffff;strokeColor=default;" parent="1" vertex="1">
          <mxGeometry x="135" y="50" width="20" height="20" as="geometry" />
        </mxCell>
        <mxCell id="7BqX2QthyGYcZfOtiyWT-27" value="" style="whiteSpace=wrap;html=1;aspect=fixed;fillColor=#1ba1e2;fontColor=#ffffff;strokeColor=default;" parent="1" vertex="1">
          <mxGeometry x="250" y="50" width="20" height="20" as="geometry" />
        </mxCell>
        <mxCell id="7BqX2QthyGYcZfOtiyWT-28" value="" style="endArrow=none;html=1;rounded=0;entryX=0.5;entryY=1;entryDx=0;entryDy=0;exitX=0.5;exitY=0;exitDx=0;exitDy=0;" parent="1" source="7BqX2QthyGYcZfOtiyWT-26" target="7BqX2QthyGYcZfOtiyWT-25" edge="1">
          <mxGeometry width="50" height="50" relative="1" as="geometry">
            <mxPoint x="205" y="120" as="sourcePoint" />
            <mxPoint x="255" y="70" as="targetPoint" />
          </mxGeometry>
        </mxCell>
        <mxCell id="7BqX2QthyGYcZfOtiyWT-30" value="" style="endArrow=none;html=1;rounded=0;exitX=0.5;exitY=0;exitDx=0;exitDy=0;entryX=0.5;entryY=1;entryDx=0;entryDy=0;" parent="1" source="7BqX2QthyGYcZfOtiyWT-33" target="7BqX2QthyGYcZfOtiyWT-31" edge="1">
          <mxGeometry width="50" height="50" relative="1" as="geometry">
            <mxPoint x="155" y="70" as="sourcePoint" />
            <mxPoint x="145" y="-110" as="targetPoint" />
          </mxGeometry>
        </mxCell>
        <mxCell id="7BqX2QthyGYcZfOtiyWT-31" value="" style="ellipse;whiteSpace=wrap;html=1;aspect=fixed;fillColor=#1ba1e2;fontColor=#ffffff;strokeColor=default;" parent="1" vertex="1">
          <mxGeometry x="130" y="-120" width="30" height="30" as="geometry" />
        </mxCell>
        <mxCell id="7BqX2QthyGYcZfOtiyWT-32" value="" style="endArrow=none;html=1;rounded=0;exitX=0.5;exitY=0;exitDx=0;exitDy=0;" parent="1" source="7BqX2QthyGYcZfOtiyWT-25" target="7BqX2QthyGYcZfOtiyWT-33" edge="1">
          <mxGeometry width="50" height="50" relative="1" as="geometry">
            <mxPoint x="145" y="-80" as="sourcePoint" />
            <mxPoint x="145" y="-110" as="targetPoint" />
          </mxGeometry>
        </mxCell>
        <mxCell id="7BqX2QthyGYcZfOtiyWT-33" value="UI" style="text;html=1;align=center;verticalAlign=middle;whiteSpace=wrap;rounded=0;" parent="1" vertex="1">
          <mxGeometry x="135" y="-60" width="20" height="20" as="geometry" />
        </mxCell>
        <mxCell id="7BqX2QthyGYcZfOtiyWT-35" value="" style="endArrow=none;html=1;rounded=0;entryX=0.5;entryY=1;entryDx=0;entryDy=0;exitX=0.5;exitY=0;exitDx=0;exitDy=0;" parent="1" source="7BqX2QthyGYcZfOtiyWT-38" target="7BqX2QthyGYcZfOtiyWT-36" edge="1">
          <mxGeometry width="50" height="50" relative="1" as="geometry">
            <mxPoint x="280" y="-100" as="sourcePoint" />
            <mxPoint x="246.5" y="-110" as="targetPoint" />
          </mxGeometry>
        </mxCell>
        <mxCell id="7BqX2QthyGYcZfOtiyWT-36" value="" style="ellipse;whiteSpace=wrap;html=1;aspect=fixed;fillColor=#1ba1e2;fontColor=#ffffff;strokeColor=default;" parent="1" vertex="1">
          <mxGeometry x="245" y="-120" width="30" height="30" as="geometry" />
        </mxCell>
        <mxCell id="7BqX2QthyGYcZfOtiyWT-37" value="" style="endArrow=none;html=1;rounded=0;exitX=0.5;exitY=0;exitDx=0;exitDy=0;" parent="1" source="7BqX2QthyGYcZfOtiyWT-34" target="7BqX2QthyGYcZfOtiyWT-38" edge="1">
          <mxGeometry width="50" height="50" relative="1" as="geometry">
            <mxPoint x="246.5" y="-80" as="sourcePoint" />
            <mxPoint x="246.5" y="-110" as="targetPoint" />
          </mxGeometry>
        </mxCell>
        <mxCell id="7BqX2QthyGYcZfOtiyWT-39" value="" style="endArrow=none;html=1;rounded=0;entryX=0.5;entryY=1;entryDx=0;entryDy=0;exitX=0.5;exitY=0;exitDx=0;exitDy=0;" parent="1" source="7BqX2QthyGYcZfOtiyWT-27" target="7BqX2QthyGYcZfOtiyWT-34" edge="1">
          <mxGeometry width="50" height="50" relative="1" as="geometry">
            <mxPoint x="246.5" y="30" as="sourcePoint" />
            <mxPoint x="246.5" y="-60" as="targetPoint" />
          </mxGeometry>
        </mxCell>
        <mxCell id="7BqX2QthyGYcZfOtiyWT-34" value="" style="whiteSpace=wrap;html=1;aspect=fixed;fillColor=#1ba1e2;fontColor=#ffffff;strokeColor=default;" parent="1" vertex="1">
          <mxGeometry x="250" y="-30" width="20" height="20" as="geometry" />
        </mxCell>
        <mxCell id="7BqX2QthyGYcZfOtiyWT-40" value="" style="endArrow=none;html=1;rounded=0;entryX=0.5;entryY=1;entryDx=0;entryDy=0;exitX=0.5;exitY=0;exitDx=0;exitDy=0;" parent="1" source="7BqX2QthyGYcZfOtiyWT-34" target="7BqX2QthyGYcZfOtiyWT-38" edge="1">
          <mxGeometry width="50" height="50" relative="1" as="geometry">
            <mxPoint x="246.5" y="-30" as="sourcePoint" />
            <mxPoint x="246.5" y="-60" as="targetPoint" />
          </mxGeometry>
        </mxCell>
        <mxCell id="7BqX2QthyGYcZfOtiyWT-38" value="3D" style="text;html=1;align=center;verticalAlign=middle;whiteSpace=wrap;rounded=0;" parent="1" vertex="1">
          <mxGeometry x="250" y="-60" width="20" height="20" as="geometry" />
        </mxCell>
        <mxCell id="7BqX2QthyGYcZfOtiyWT-42" value="&amp;lt;&amp;lt;Component&amp;gt;&amp;gt;&lt;div style=&quot;padding-right: 0px;&quot;&gt;&lt;b&gt;View&lt;/b&gt;&lt;/div&gt;" style="html=1;dropTarget=0;whiteSpace=wrap;horizontal=1;verticalAlign=top;fillColor=#1ba1e2;fontColor=#ffffff;strokeColor=default;" parent="1" vertex="1">
          <mxGeometry x="127.5" y="140" width="170" height="60" as="geometry" />
        </mxCell>
        <mxCell id="7BqX2QthyGYcZfOtiyWT-43" value="" style="shape=module;jettyWidth=8;jettyHeight=4;" parent="7BqX2QthyGYcZfOtiyWT-42" vertex="1">
          <mxGeometry x="1" width="20" height="20" relative="1" as="geometry">
            <mxPoint x="-27" y="7" as="offset" />
          </mxGeometry>
        </mxCell>
        <mxCell id="7BqX2QthyGYcZfOtiyWT-49" value="" style="endArrow=none;html=1;rounded=0;entryX=0.5;entryY=1;entryDx=0;entryDy=0;exitX=0.5;exitY=0;exitDx=0;exitDy=0;" parent="1" source="aBO5GnsNo3qE9rnvK7c--81" target="7BqX2QthyGYcZfOtiyWT-26" edge="1">
          <mxGeometry width="50" height="50" relative="1" as="geometry">
            <mxPoint x="145" y="130" as="sourcePoint" />
            <mxPoint x="155" as="targetPoint" />
          </mxGeometry>
        </mxCell>
        <mxCell id="7BqX2QthyGYcZfOtiyWT-50" value="" style="endArrow=none;html=1;rounded=0;entryX=0.5;entryY=1;entryDx=0;entryDy=0;" parent="1" source="aBO5GnsNo3qE9rnvK7c--79" target="7BqX2QthyGYcZfOtiyWT-27" edge="1">
          <mxGeometry width="50" height="50" relative="1" as="geometry">
            <mxPoint x="260" y="138" as="sourcePoint" />
            <mxPoint x="155" y="60" as="targetPoint" />
          </mxGeometry>
        </mxCell>
        <mxCell id="7BqX2QthyGYcZfOtiyWT-51" value="&amp;lt;&amp;lt;Component&amp;gt;&amp;gt;&lt;div style=&quot;padding-right: 0px;&quot;&gt;&lt;b&gt;Controller&lt;/b&gt;&lt;/div&gt;" style="html=1;dropTarget=0;whiteSpace=wrap;horizontal=1;verticalAlign=top;fillColor=#1ba1e2;fontColor=#ffffff;strokeColor=default;" parent="1" vertex="1">
          <mxGeometry x="127.5" y="330" width="170" height="60" as="geometry" />
        </mxCell>
        <mxCell id="7BqX2QthyGYcZfOtiyWT-63" value="" style="shape=providedRequiredInterface;html=1;verticalLabelPosition=bottom;sketch=0;rotation=-90;fillColor=#1ba1e2;fontColor=#ffffff;strokeColor=default;" parent="1" vertex="1">
          <mxGeometry x="140" y="250" width="20" height="20" as="geometry" />
        </mxCell>
        <mxCell id="7BqX2QthyGYcZfOtiyWT-64" value="" style="endArrow=none;html=1;rounded=0;entryX=0.5;entryY=1;entryDx=0;entryDy=0;exitX=1;exitY=0.5;exitDx=0;exitDy=0;exitPerimeter=0;" parent="1" edge="1">
          <mxGeometry width="50" height="50" relative="1" as="geometry">
            <mxPoint x="149.5" y="250" as="sourcePoint" />
            <mxPoint x="149.5" y="200" as="targetPoint" />
          </mxGeometry>
        </mxCell>
        <mxCell id="7BqX2QthyGYcZfOtiyWT-65" value="" style="endArrow=none;html=1;rounded=0;entryX=0;entryY=0.5;entryDx=0;entryDy=0;exitX=0.127;exitY=0.025;exitDx=0;exitDy=0;entryPerimeter=0;exitPerimeter=0;" parent="1" source="7BqX2QthyGYcZfOtiyWT-51" target="7BqX2QthyGYcZfOtiyWT-63" edge="1">
          <mxGeometry width="50" height="50" relative="1" as="geometry">
            <mxPoint x="150" y="320" as="sourcePoint" />
            <mxPoint x="223" y="210" as="targetPoint" />
          </mxGeometry>
        </mxCell>
        <mxCell id="7BqX2QthyGYcZfOtiyWT-69" value="Controller API" style="text;html=1;align=center;verticalAlign=middle;whiteSpace=wrap;rounded=0;" parent="1" vertex="1">
          <mxGeometry x="155" y="230" width="87.5" height="20" as="geometry" />
        </mxCell>
        <mxCell id="7BqX2QthyGYcZfOtiyWT-71" value="&amp;lt;&amp;lt;Component&amp;gt;&amp;gt;&lt;div&gt;&lt;b&gt;Service&lt;/b&gt;&lt;/div&gt;" style="html=1;dropTarget=0;whiteSpace=wrap;horizontal=1;verticalAlign=top;fillColor=#1ba1e2;fontColor=#ffffff;strokeColor=default;" parent="1" vertex="1">
          <mxGeometry x="127.5" y="570" width="170" height="60" as="geometry" />
        </mxCell>
        <mxCell id="7BqX2QthyGYcZfOtiyWT-72" value="" style="shape=module;jettyWidth=8;jettyHeight=4;" parent="7BqX2QthyGYcZfOtiyWT-71" vertex="1">
          <mxGeometry x="1" width="20" height="20" relative="1" as="geometry">
            <mxPoint x="-27" y="7" as="offset" />
          </mxGeometry>
        </mxCell>
        <mxCell id="7BqX2QthyGYcZfOtiyWT-73" value="" style="shape=providedRequiredInterface;html=1;verticalLabelPosition=bottom;sketch=0;rotation=-90;fillColor=#1ba1e2;fontColor=#ffffff;strokeColor=default;" parent="1" vertex="1">
          <mxGeometry x="140" y="470" width="20" height="20" as="geometry" />
        </mxCell>
        <mxCell id="7BqX2QthyGYcZfOtiyWT-74" value="" style="endArrow=none;html=1;rounded=0;entryX=0.5;entryY=1;entryDx=0;entryDy=0;exitX=1;exitY=0.5;exitDx=0;exitDy=0;exitPerimeter=0;" parent="1" edge="1">
          <mxGeometry width="50" height="50" relative="1" as="geometry">
            <mxPoint x="160" y="390" as="sourcePoint" />
            <mxPoint x="150.5" y="390" as="targetPoint" />
          </mxGeometry>
        </mxCell>
        <mxCell id="7BqX2QthyGYcZfOtiyWT-75" value="" style="endArrow=none;html=1;rounded=0;entryX=0;entryY=0.5;entryDx=0;entryDy=0;exitX=0.137;exitY=0.011;exitDx=0;exitDy=0;entryPerimeter=0;exitPerimeter=0;" parent="1" source="7BqX2QthyGYcZfOtiyWT-71" target="7BqX2QthyGYcZfOtiyWT-73" edge="1">
          <mxGeometry width="50" height="50" relative="1" as="geometry">
            <mxPoint x="150" y="560" as="sourcePoint" />
            <mxPoint x="160.5" y="400" as="targetPoint" />
          </mxGeometry>
        </mxCell>
        <mxCell id="7BqX2QthyGYcZfOtiyWT-77" value="Service API" style="text;html=1;align=center;verticalAlign=middle;whiteSpace=wrap;rounded=0;" parent="1" vertex="1">
          <mxGeometry x="150" y="480" width="87.5" height="20" as="geometry" />
        </mxCell>
        <mxCell id="7BqX2QthyGYcZfOtiyWT-78" value="&amp;lt;&amp;lt;Component&amp;gt;&amp;gt;&lt;div&gt;&lt;b&gt;Service-Controller&lt;/b&gt;&lt;/div&gt;&lt;div&gt;&lt;b&gt;DTO&lt;/b&gt;&lt;/div&gt;" style="html=1;dropTarget=0;whiteSpace=wrap;horizontal=1;verticalAlign=top;fillColor=#1ba1e2;fontColor=#ffffff;strokeColor=default;" parent="1" vertex="1">
          <mxGeometry x="390" y="410" width="170" height="60" as="geometry" />
        </mxCell>
        <mxCell id="7BqX2QthyGYcZfOtiyWT-79" value="" style="shape=module;jettyWidth=8;jettyHeight=4;" parent="7BqX2QthyGYcZfOtiyWT-78" vertex="1">
          <mxGeometry x="1" width="20" height="20" relative="1" as="geometry">
            <mxPoint x="-27" y="7" as="offset" />
          </mxGeometry>
        </mxCell>
        <mxCell id="7BqX2QthyGYcZfOtiyWT-80" value="" style="shape=providedRequiredInterface;html=1;verticalLabelPosition=bottom;sketch=0;rotation=-200;fillColor=#1ba1e2;fontColor=#ffffff;strokeColor=default;" parent="1" vertex="1">
          <mxGeometry x="330" y="440" width="20" height="20" as="geometry" />
        </mxCell>
        <mxCell id="7BqX2QthyGYcZfOtiyWT-81" value="" style="endArrow=none;html=1;rounded=0;exitX=0.76;exitY=1.003;exitDx=0;exitDy=0;exitPerimeter=0;" parent="1" source="7BqX2QthyGYcZfOtiyWT-80" edge="1">
          <mxGeometry width="50" height="50" relative="1" as="geometry">
            <mxPoint x="390" y="354" as="sourcePoint" />
            <mxPoint x="270" y="390" as="targetPoint" />
          </mxGeometry>
        </mxCell>
        <mxCell id="7BqX2QthyGYcZfOtiyWT-88" value="&amp;lt;&amp;lt;Component&amp;gt;&amp;gt;&lt;div&gt;&lt;b&gt;HTTP Driver&lt;/b&gt;&lt;/div&gt;" style="html=1;dropTarget=0;whiteSpace=wrap;horizontal=1;verticalAlign=top;fillColor=#1ba1e2;fontColor=#ffffff;strokeColor=default;" parent="1" vertex="1">
          <mxGeometry x="595" y="110" width="170" height="60" as="geometry" />
        </mxCell>
        <mxCell id="7BqX2QthyGYcZfOtiyWT-89" value="" style="shape=module;jettyWidth=8;jettyHeight=4;" parent="7BqX2QthyGYcZfOtiyWT-88" vertex="1">
          <mxGeometry x="1" width="20" height="20" relative="1" as="geometry">
            <mxPoint x="-27" y="7" as="offset" />
          </mxGeometry>
        </mxCell>
        <mxCell id="7BqX2QthyGYcZfOtiyWT-91" value="" style="shape=providedRequiredInterface;html=1;verticalLabelPosition=bottom;sketch=0;rotation=30;fillColor=#1ba1e2;fontColor=#ffffff;strokeColor=default;" parent="1" vertex="1">
          <mxGeometry x="383.75" y="180" width="20" height="20" as="geometry" />
        </mxCell>
        <mxCell id="7BqX2QthyGYcZfOtiyWT-92" value="Observer API" style="text;html=1;align=center;verticalAlign=middle;whiteSpace=wrap;rounded=0;" parent="1" vertex="1">
          <mxGeometry x="370" y="160" width="87.5" height="20" as="geometry" />
        </mxCell>
        <mxCell id="7BqX2QthyGYcZfOtiyWT-98" value="" style="endArrow=none;html=1;rounded=0;entryX=0;entryY=0.5;entryDx=0;entryDy=0;exitX=0.997;exitY=0.367;exitDx=0;exitDy=0;exitPerimeter=0;entryPerimeter=0;" parent="1" source="7BqX2QthyGYcZfOtiyWT-42" target="7BqX2QthyGYcZfOtiyWT-91" edge="1">
          <mxGeometry width="50" height="50" relative="1" as="geometry">
            <mxPoint x="433" y="215" as="sourcePoint" />
            <mxPoint x="490" y="340" as="targetPoint" />
            <Array as="points" />
          </mxGeometry>
        </mxCell>
        <mxCell id="7BqX2QthyGYcZfOtiyWT-99" value="" style="endArrow=none;html=1;rounded=0;entryX=1;entryY=0.5;entryDx=0;entryDy=0;entryPerimeter=0;" parent="1" target="7BqX2QthyGYcZfOtiyWT-91" edge="1">
          <mxGeometry width="50" height="50" relative="1" as="geometry">
            <mxPoint x="460" y="230" as="sourcePoint" />
            <mxPoint x="430" y="210" as="targetPoint" />
            <Array as="points" />
          </mxGeometry>
        </mxCell>
        <mxCell id="7BqX2QthyGYcZfOtiyWT-109" value="" style="rounded=0;orthogonalLoop=1;jettySize=auto;html=1;endArrow=halfCircle;endFill=0;endSize=6;strokeWidth=1;sketch=0;fontSize=12;curved=1;exitX=0.5;exitY=0;exitDx=0;exitDy=0;" parent="1" source="7BqX2QthyGYcZfOtiyWT-113" edge="1">
          <mxGeometry relative="1" as="geometry">
            <mxPoint x="675" y="85" as="sourcePoint" />
            <mxPoint x="680" y="-70" as="targetPoint" />
          </mxGeometry>
        </mxCell>
        <mxCell id="7BqX2QthyGYcZfOtiyWT-110" value="" style="ellipse;whiteSpace=wrap;html=1;align=center;aspect=fixed;fillColor=none;strokeColor=none;resizable=0;perimeter=centerPerimeter;rotatable=0;allowArrows=0;points=[];outlineConnect=1;" parent="1" vertex="1">
          <mxGeometry x="650" y="80" width="10" height="10" as="geometry" />
        </mxCell>
        <mxCell id="7BqX2QthyGYcZfOtiyWT-111" value="" style="whiteSpace=wrap;html=1;aspect=fixed;fillColor=#1ba1e2;fontColor=#ffffff;strokeColor=default;" parent="1" vertex="1">
          <mxGeometry x="670" y="50" width="20" height="20" as="geometry" />
        </mxCell>
        <mxCell id="7BqX2QthyGYcZfOtiyWT-113" value="Web API" style="text;html=1;align=center;verticalAlign=middle;whiteSpace=wrap;rounded=0;" parent="1" vertex="1">
          <mxGeometry x="645" y="-20" width="70" height="20" as="geometry" />
        </mxCell>
        <mxCell id="7BqX2QthyGYcZfOtiyWT-115" value="" style="endArrow=none;html=1;rounded=0;exitX=0.5;exitY=0;exitDx=0;exitDy=0;" parent="1" source="7BqX2QthyGYcZfOtiyWT-119" edge="1">
          <mxGeometry width="50" height="50" relative="1" as="geometry">
            <mxPoint x="680" y="99" as="sourcePoint" />
            <mxPoint x="680" y="70" as="targetPoint" />
          </mxGeometry>
        </mxCell>
        <mxCell id="7BqX2QthyGYcZfOtiyWT-116" value="" style="endArrow=none;html=1;rounded=0;entryX=0.5;entryY=1;entryDx=0;entryDy=0;exitX=0.5;exitY=0;exitDx=0;exitDy=0;" parent="1" source="7BqX2QthyGYcZfOtiyWT-111" target="7BqX2QthyGYcZfOtiyWT-113" edge="1">
          <mxGeometry width="50" height="50" relative="1" as="geometry">
            <mxPoint x="580" y="40" as="sourcePoint" />
            <mxPoint x="630" y="-10" as="targetPoint" />
          </mxGeometry>
        </mxCell>
        <mxCell id="7BqX2QthyGYcZfOtiyWT-120" value="" style="endArrow=none;html=1;rounded=0;exitX=0.5;exitY=0;exitDx=0;exitDy=0;" parent="1" source="7BqX2QthyGYcZfOtiyWT-88" target="7BqX2QthyGYcZfOtiyWT-119" edge="1">
          <mxGeometry width="50" height="50" relative="1" as="geometry">
            <mxPoint x="680" y="110" as="sourcePoint" />
            <mxPoint x="680" y="70" as="targetPoint" />
          </mxGeometry>
        </mxCell>
        <mxCell id="7BqX2QthyGYcZfOtiyWT-119" value="" style="whiteSpace=wrap;html=1;aspect=fixed;fillColor=#1ba1e2;fontColor=#ffffff;strokeColor=default;" parent="1" vertex="1">
          <mxGeometry x="670" y="100" width="20" height="20" as="geometry" />
        </mxCell>
        <mxCell id="aBO5GnsNo3qE9rnvK7c--3" value="&amp;lt;&amp;lt;Component&amp;gt;&amp;gt;&lt;div&gt;&lt;b&gt;View Model&lt;/b&gt;&lt;/div&gt;" style="html=1;dropTarget=0;whiteSpace=wrap;horizontal=1;verticalAlign=top;fillColor=#1ba1e2;fontColor=#ffffff;strokeColor=default;" parent="1" vertex="1">
          <mxGeometry x="370" y="230" width="170" height="60" as="geometry" />
        </mxCell>
        <mxCell id="aBO5GnsNo3qE9rnvK7c--4" value="" style="shape=module;jettyWidth=8;jettyHeight=4;" parent="aBO5GnsNo3qE9rnvK7c--3" vertex="1">
          <mxGeometry x="1" width="20" height="20" relative="1" as="geometry">
            <mxPoint x="-27" y="7" as="offset" />
          </mxGeometry>
        </mxCell>
        <mxCell id="aBO5GnsNo3qE9rnvK7c--7" value="" style="shape=providedRequiredInterface;html=1;verticalLabelPosition=bottom;sketch=0;rotation=-175;fillColor=#1ba1e2;fontColor=#ffffff;strokeColor=default;" parent="1" vertex="1">
          <mxGeometry x="278.13" y="250" width="20" height="20" as="geometry" />
        </mxCell>
        <mxCell id="aBO5GnsNo3qE9rnvK7c--8" value="VM API" style="text;html=1;align=center;verticalAlign=middle;whiteSpace=wrap;rounded=0;" parent="1" vertex="1">
          <mxGeometry x="297.5" y="240" width="43.75" height="20" as="geometry" />
        </mxCell>
        <mxCell id="aBO5GnsNo3qE9rnvK7c--12" value="" style="endArrow=none;html=1;rounded=0;exitX=0.5;exitY=0;exitDx=0;exitDy=0;entryX=1;entryY=0.5;entryDx=0;entryDy=0;entryPerimeter=0;" parent="1" source="aBO5GnsNo3qE9rnvK7c--3" edge="1">
          <mxGeometry width="50" height="50" relative="1" as="geometry">
            <mxPoint x="435" y="220" as="sourcePoint" />
            <mxPoint x="465" y="230" as="targetPoint" />
            <Array as="points" />
          </mxGeometry>
        </mxCell>
        <mxCell id="aBO5GnsNo3qE9rnvK7c--14" value="" style="endArrow=none;html=1;rounded=0;entryX=0.794;entryY=1.11;entryDx=0;entryDy=0;exitX=0.799;exitY=0.997;exitDx=0;exitDy=0;entryPerimeter=0;exitPerimeter=0;" parent="1" source="7BqX2QthyGYcZfOtiyWT-42" target="aBO5GnsNo3qE9rnvK7c--7" edge="1">
          <mxGeometry width="50" height="50" relative="1" as="geometry">
            <mxPoint x="265" y="210" as="sourcePoint" />
            <mxPoint x="395" y="195" as="targetPoint" />
            <Array as="points" />
          </mxGeometry>
        </mxCell>
        <mxCell id="aBO5GnsNo3qE9rnvK7c--15" value="" style="endArrow=none;html=1;rounded=0;entryX=0;entryY=0.5;entryDx=0;entryDy=0;exitX=0;exitY=0.5;exitDx=0;exitDy=0;exitPerimeter=0;" parent="1" source="aBO5GnsNo3qE9rnvK7c--7" target="aBO5GnsNo3qE9rnvK7c--3" edge="1">
          <mxGeometry width="50" height="50" relative="1" as="geometry">
            <mxPoint x="330" y="240" as="sourcePoint" />
            <mxPoint x="322" y="244" as="targetPoint" />
            <Array as="points" />
          </mxGeometry>
        </mxCell>
        <mxCell id="aBO5GnsNo3qE9rnvK7c--19" value="" style="endArrow=none;html=1;rounded=0;entryX=0.725;entryY=0.107;entryDx=0;entryDy=0;exitX=0.887;exitY=-0.003;exitDx=0;exitDy=0;entryPerimeter=0;exitPerimeter=0;" parent="1" source="7BqX2QthyGYcZfOtiyWT-51" target="aBO5GnsNo3qE9rnvK7c--7" edge="1">
          <mxGeometry width="50" height="50" relative="1" as="geometry">
            <mxPoint x="280" y="320" as="sourcePoint" />
            <mxPoint x="322" y="244" as="targetPoint" />
            <Array as="points" />
          </mxGeometry>
        </mxCell>
        <mxCell id="aBO5GnsNo3qE9rnvK7c--25" value="&amp;lt;&amp;lt;Component&amp;gt;&amp;gt;&lt;div&gt;&lt;b&gt;Model&lt;/b&gt;&lt;/div&gt;" style="html=1;dropTarget=0;whiteSpace=wrap;horizontal=1;verticalAlign=top;fillColor=#1ba1e2;fontColor=#ffffff;strokeColor=default;" parent="1" vertex="1">
          <mxGeometry x="127.5" y="790" width="170" height="60" as="geometry" />
        </mxCell>
        <mxCell id="aBO5GnsNo3qE9rnvK7c--26" value="" style="shape=module;jettyWidth=8;jettyHeight=4;" parent="aBO5GnsNo3qE9rnvK7c--25" vertex="1">
          <mxGeometry x="1" width="20" height="20" relative="1" as="geometry">
            <mxPoint x="-27" y="7" as="offset" />
          </mxGeometry>
        </mxCell>
        <mxCell id="aBO5GnsNo3qE9rnvK7c--27" value="" style="endArrow=none;html=1;rounded=0;entryX=0;entryY=0.5;entryDx=0;entryDy=0;exitX=0;exitY=0.5;exitDx=0;exitDy=0;exitPerimeter=0;" parent="1" source="7BqX2QthyGYcZfOtiyWT-80" target="7BqX2QthyGYcZfOtiyWT-78" edge="1">
          <mxGeometry width="50" height="50" relative="1" as="geometry">
            <mxPoint x="341" y="433" as="sourcePoint" />
            <mxPoint x="308" y="370" as="targetPoint" />
          </mxGeometry>
        </mxCell>
        <mxCell id="aBO5GnsNo3qE9rnvK7c--30" value="" style="endArrow=none;html=1;rounded=0;entryX=0.132;entryY=1;entryDx=0;entryDy=0;exitX=1;exitY=0.5;exitDx=0;exitDy=0;exitPerimeter=0;entryPerimeter=0;" parent="1" source="7BqX2QthyGYcZfOtiyWT-73" target="7BqX2QthyGYcZfOtiyWT-51" edge="1">
          <mxGeometry width="50" height="50" relative="1" as="geometry">
            <mxPoint x="149.75" y="470" as="sourcePoint" />
            <mxPoint x="150" y="400" as="targetPoint" />
          </mxGeometry>
        </mxCell>
        <mxCell id="aBO5GnsNo3qE9rnvK7c--34" value="" style="endArrow=none;html=1;rounded=0;exitX=1.006;exitY=0.205;exitDx=0;exitDy=0;exitPerimeter=0;entryX=0.721;entryY=-0.044;entryDx=0;entryDy=0;entryPerimeter=0;" parent="1" source="7BqX2QthyGYcZfOtiyWT-80" target="7BqX2QthyGYcZfOtiyWT-71" edge="1">
          <mxGeometry width="50" height="50" relative="1" as="geometry">
            <mxPoint x="352" y="392" as="sourcePoint" />
            <mxPoint x="255" y="560" as="targetPoint" />
          </mxGeometry>
        </mxCell>
        <mxCell id="aBO5GnsNo3qE9rnvK7c--35" value="SC DTO API" style="text;html=1;align=center;verticalAlign=middle;whiteSpace=wrap;rounded=0;" parent="1" vertex="1">
          <mxGeometry x="311.88" y="410" width="78.12" height="20" as="geometry" />
        </mxCell>
        <mxCell id="aBO5GnsNo3qE9rnvK7c--38" value="" style="shape=providedRequiredInterface;html=1;verticalLabelPosition=bottom;sketch=0;rotation=-90;fillColor=#1ba1e2;fontColor=#ffffff;strokeColor=default;" parent="1" vertex="1">
          <mxGeometry x="200" y="700" width="20" height="20" as="geometry" />
        </mxCell>
        <mxCell id="aBO5GnsNo3qE9rnvK7c--41" value="" style="endArrow=none;html=1;rounded=0;exitX=1;exitY=0.5;exitDx=0;exitDy=0;exitPerimeter=0;" parent="1" edge="1">
          <mxGeometry width="50" height="50" relative="1" as="geometry">
            <mxPoint x="220" y="630" as="sourcePoint" />
            <mxPoint x="210" y="630" as="targetPoint" />
            <Array as="points" />
          </mxGeometry>
        </mxCell>
        <mxCell id="aBO5GnsNo3qE9rnvK7c--42" value="" style="endArrow=none;html=1;rounded=0;exitX=0;exitY=0.5;exitDx=0;exitDy=0;exitPerimeter=0;entryX=0.5;entryY=0;entryDx=0;entryDy=0;" parent="1" target="aBO5GnsNo3qE9rnvK7c--25" edge="1">
          <mxGeometry width="50" height="50" relative="1" as="geometry">
            <mxPoint x="200" y="790" as="sourcePoint" />
            <mxPoint x="220" y="640" as="targetPoint" />
            <Array as="points" />
          </mxGeometry>
        </mxCell>
        <mxCell id="aBO5GnsNo3qE9rnvK7c--44" value="" style="endArrow=none;html=1;rounded=0;exitX=1;exitY=0.5;exitDx=0;exitDy=0;exitPerimeter=0;" parent="1" source="aBO5GnsNo3qE9rnvK7c--38" edge="1">
          <mxGeometry width="50" height="50" relative="1" as="geometry">
            <mxPoint x="210" y="700" as="sourcePoint" />
            <mxPoint x="210" y="630" as="targetPoint" />
            <Array as="points" />
          </mxGeometry>
        </mxCell>
        <mxCell id="aBO5GnsNo3qE9rnvK7c--46" value="" style="endArrow=none;html=1;rounded=0;exitX=0;exitY=0.5;exitDx=0;exitDy=0;exitPerimeter=0;" parent="1" source="aBO5GnsNo3qE9rnvK7c--38" edge="1">
          <mxGeometry width="50" height="50" relative="1" as="geometry">
            <mxPoint x="210" y="720" as="sourcePoint" />
            <mxPoint x="210" y="790" as="targetPoint" />
            <Array as="points" />
          </mxGeometry>
        </mxCell>
        <mxCell id="aBO5GnsNo3qE9rnvK7c--47" value="Model API" style="text;html=1;align=center;verticalAlign=middle;whiteSpace=wrap;rounded=0;" parent="1" vertex="1">
          <mxGeometry x="130" y="690" width="78.12" height="20" as="geometry" />
        </mxCell>
        <mxCell id="aBO5GnsNo3qE9rnvK7c--48" value="&amp;lt;&amp;lt;Component&amp;gt;&amp;gt;&lt;div&gt;&lt;b&gt;Repository&lt;/b&gt;&lt;/div&gt;" style="html=1;dropTarget=0;whiteSpace=wrap;horizontal=1;verticalAlign=top;fillColor=#1ba1e2;fontColor=#ffffff;strokeColor=default;" parent="1" vertex="1">
          <mxGeometry x="605" y="410" width="170" height="60" as="geometry" />
        </mxCell>
        <mxCell id="aBO5GnsNo3qE9rnvK7c--49" value="" style="shape=module;jettyWidth=8;jettyHeight=4;" parent="aBO5GnsNo3qE9rnvK7c--48" vertex="1">
          <mxGeometry x="1" width="20" height="20" relative="1" as="geometry">
            <mxPoint x="-27" y="7" as="offset" />
          </mxGeometry>
        </mxCell>
        <mxCell id="aBO5GnsNo3qE9rnvK7c--54" value="" style="endArrow=none;html=1;rounded=0;entryX=0;entryY=0.5;entryDx=0;entryDy=0;exitX=0.221;exitY=1.011;exitDx=0;exitDy=0;entryPerimeter=0;exitPerimeter=0;" parent="1" source="aBO5GnsNo3qE9rnvK7c--48" target="aBO5GnsNo3qE9rnvK7c--51" edge="1">
          <mxGeometry width="50" height="50" relative="1" as="geometry">
            <mxPoint x="635" y="480" as="sourcePoint" />
            <mxPoint x="297" y="607" as="targetPoint" />
            <Array as="points" />
          </mxGeometry>
        </mxCell>
        <mxCell id="aBO5GnsNo3qE9rnvK7c--51" value="" style="shape=providedRequiredInterface;html=1;verticalLabelPosition=bottom;sketch=0;rotation=-215;fillColor=#1ba1e2;fontColor=#ffffff;strokeColor=default;" parent="1" vertex="1">
          <mxGeometry x="490" y="540" width="20" height="20" as="geometry" />
        </mxCell>
        <mxCell id="aBO5GnsNo3qE9rnvK7c--59" value="Repo API" style="text;html=1;align=center;verticalAlign=middle;whiteSpace=wrap;rounded=0;" parent="1" vertex="1">
          <mxGeometry x="450" y="520" width="78.12" height="20" as="geometry" />
        </mxCell>
        <mxCell id="aBO5GnsNo3qE9rnvK7c--61" value="" style="endArrow=none;html=1;rounded=0;entryX=1;entryY=0.5;entryDx=0;entryDy=0;exitX=0.983;exitY=0.899;exitDx=0;exitDy=0;exitPerimeter=0;" parent="1" source="aBO5GnsNo3qE9rnvK7c--51" target="7BqX2QthyGYcZfOtiyWT-71" edge="1">
          <mxGeometry width="50" height="50" relative="1" as="geometry">
            <mxPoint x="488" y="549" as="sourcePoint" />
            <mxPoint x="310" y="600" as="targetPoint" />
            <Array as="points" />
          </mxGeometry>
        </mxCell>
        <mxCell id="aBO5GnsNo3qE9rnvK7c--65" value="" style="endArrow=none;html=1;rounded=0;entryX=0.925;entryY=0.958;entryDx=0;entryDy=0;exitX=0.75;exitY=1;exitDx=0;exitDy=0;entryPerimeter=0;" parent="1" source="aBO5GnsNo3qE9rnvK7c--48" target="aBO5GnsNo3qE9rnvK7c--38" edge="1">
          <mxGeometry width="50" height="50" relative="1" as="geometry">
            <mxPoint x="723.5200000000002" y="480" as="sourcePoint" />
            <mxPoint x="219.99999999999991" y="700.0000000000001" as="targetPoint" />
            <Array as="points">
              <mxPoint x="510" y="640" />
            </Array>
          </mxGeometry>
        </mxCell>
        <mxCell id="aBO5GnsNo3qE9rnvK7c--68" value="&amp;lt;&amp;lt;Component&amp;gt;&amp;gt;&lt;div&gt;&lt;b&gt;External-Internal&lt;/b&gt;&lt;/div&gt;&lt;div&gt;&lt;b&gt;DTO&lt;/b&gt;&lt;/div&gt;" style="html=1;dropTarget=0;whiteSpace=wrap;horizontal=1;verticalAlign=top;fillColor=#1ba1e2;fontColor=#ffffff;strokeColor=default;" parent="1" vertex="1">
          <mxGeometry x="820" y="260" width="170" height="60" as="geometry" />
        </mxCell>
        <mxCell id="aBO5GnsNo3qE9rnvK7c--69" value="" style="shape=module;jettyWidth=8;jettyHeight=4;" parent="aBO5GnsNo3qE9rnvK7c--68" vertex="1">
          <mxGeometry x="1" width="20" height="20" relative="1" as="geometry">
            <mxPoint x="-27" y="7" as="offset" />
          </mxGeometry>
        </mxCell>
        <mxCell id="aBO5GnsNo3qE9rnvK7c--71" value="" style="shape=providedRequiredInterface;html=1;verticalLabelPosition=bottom;sketch=0;rotation=-180;fillColor=#1ba1e2;fontColor=#ffffff;strokeColor=default;" parent="1" vertex="1">
          <mxGeometry x="745" y="280" width="20" height="20" as="geometry" />
        </mxCell>
        <mxCell id="aBO5GnsNo3qE9rnvK7c--72" value="" style="endArrow=none;html=1;rounded=0;entryX=0;entryY=0.5;entryDx=0;entryDy=0;exitX=0;exitY=0.5;exitDx=0;exitDy=0;entryPerimeter=0;" parent="1" target="aBO5GnsNo3qE9rnvK7c--71" edge="1">
          <mxGeometry width="50" height="50" relative="1" as="geometry">
            <mxPoint x="807.0000000000002" y="290" as="sourcePoint" />
            <mxPoint x="229" y="712" as="targetPoint" />
            <Array as="points" />
          </mxGeometry>
        </mxCell>
        <mxCell id="aBO5GnsNo3qE9rnvK7c--73" value="" style="endArrow=none;html=1;rounded=0;entryX=0.75;entryY=0.967;entryDx=0;entryDy=0;exitX=0.892;exitY=1.039;exitDx=0;exitDy=0;exitPerimeter=0;entryPerimeter=0;" parent="1" source="7BqX2QthyGYcZfOtiyWT-88" target="aBO5GnsNo3qE9rnvK7c--71" edge="1">
          <mxGeometry width="50" height="50" relative="1" as="geometry">
            <mxPoint x="307" y="172" as="sourcePoint" />
            <mxPoint x="395" y="195" as="targetPoint" />
            <Array as="points" />
          </mxGeometry>
        </mxCell>
        <mxCell id="aBO5GnsNo3qE9rnvK7c--74" value="EI DTO API" style="text;html=1;align=center;verticalAlign=middle;whiteSpace=wrap;rounded=0;" parent="1" vertex="1">
          <mxGeometry x="750" y="240" width="87.5" height="20" as="geometry" />
        </mxCell>
        <mxCell id="aBO5GnsNo3qE9rnvK7c--75" value="" style="endArrow=none;html=1;rounded=0;exitX=0.873;exitY=0.011;exitDx=0;exitDy=0;exitPerimeter=0;entryX=0.75;entryY=0.008;entryDx=0;entryDy=0;entryPerimeter=0;" parent="1" source="aBO5GnsNo3qE9rnvK7c--48" target="aBO5GnsNo3qE9rnvK7c--71" edge="1">
          <mxGeometry width="50" height="50" relative="1" as="geometry">
            <mxPoint x="757" y="182" as="sourcePoint" />
            <mxPoint x="760" y="300" as="targetPoint" />
            <Array as="points" />
          </mxGeometry>
        </mxCell>
        <mxCell id="aBO5GnsNo3qE9rnvK7c--76" value="" style="endArrow=none;html=1;rounded=0;entryX=0;entryY=0.5;entryDx=0;entryDy=0;exitX=0;exitY=0.5;exitDx=0;exitDy=0;entryPerimeter=0;" parent="1" source="aBO5GnsNo3qE9rnvK7c--68" edge="1">
          <mxGeometry width="50" height="50" relative="1" as="geometry">
            <mxPoint x="820" y="290" as="sourcePoint" />
            <mxPoint x="807.0000000000002" y="290" as="targetPoint" />
            <Array as="points" />
          </mxGeometry>
        </mxCell>
        <mxCell id="aBO5GnsNo3qE9rnvK7c--80" value="" style="endArrow=none;html=1;rounded=0;entryX=0.5;entryY=1;entryDx=0;entryDy=0;" parent="1" target="aBO5GnsNo3qE9rnvK7c--79" edge="1">
          <mxGeometry width="50" height="50" relative="1" as="geometry">
            <mxPoint x="260" y="138" as="sourcePoint" />
            <mxPoint x="260" y="70" as="targetPoint" />
          </mxGeometry>
        </mxCell>
        <mxCell id="aBO5GnsNo3qE9rnvK7c--79" value="" style="whiteSpace=wrap;html=1;aspect=fixed;fillColor=#1ba1e2;fontColor=#ffffff;strokeColor=default;" parent="1" vertex="1">
          <mxGeometry x="250" y="130" width="20" height="20" as="geometry" />
        </mxCell>
        <mxCell id="aBO5GnsNo3qE9rnvK7c--82" value="" style="endArrow=none;html=1;rounded=0;entryX=0.5;entryY=1;entryDx=0;entryDy=0;exitX=0.103;exitY=0;exitDx=0;exitDy=0;exitPerimeter=0;" parent="1" source="7BqX2QthyGYcZfOtiyWT-42" target="aBO5GnsNo3qE9rnvK7c--81" edge="1">
          <mxGeometry width="50" height="50" relative="1" as="geometry">
            <mxPoint x="145" y="140" as="sourcePoint" />
            <mxPoint x="145" y="70" as="targetPoint" />
          </mxGeometry>
        </mxCell>
        <mxCell id="aBO5GnsNo3qE9rnvK7c--81" value="" style="whiteSpace=wrap;html=1;aspect=fixed;fillColor=#1ba1e2;fontColor=#ffffff;strokeColor=default;" parent="1" vertex="1">
          <mxGeometry x="135" y="130" width="20" height="20" as="geometry" />
        </mxCell>
        <mxCell id="aBO5GnsNo3qE9rnvK7c--83" value="" style="shape=providedRequiredInterface;html=1;verticalLabelPosition=bottom;sketch=0;rotation=90;fillColor=#1ba1e2;fontColor=#ffffff;strokeColor=default;" parent="1" vertex="1">
          <mxGeometry x="620" y="280" width="20" height="20" as="geometry" />
        </mxCell>
        <mxCell id="aBO5GnsNo3qE9rnvK7c--84" value="" style="endArrow=none;html=1;rounded=0;entryX=0;entryY=0.5;entryDx=0;entryDy=0;exitX=0.206;exitY=1;exitDx=0;exitDy=0;exitPerimeter=0;entryPerimeter=0;" parent="1" source="7BqX2QthyGYcZfOtiyWT-88" target="aBO5GnsNo3qE9rnvK7c--83" edge="1">
          <mxGeometry width="50" height="50" relative="1" as="geometry">
            <mxPoint x="757" y="182" as="sourcePoint" />
            <mxPoint x="770" y="291" as="targetPoint" />
            <Array as="points" />
          </mxGeometry>
        </mxCell>
        <mxCell id="aBO5GnsNo3qE9rnvK7c--85" value="" style="endArrow=none;html=1;rounded=0;exitX=1;exitY=0.5;exitDx=0;exitDy=0;exitPerimeter=0;" parent="1" source="aBO5GnsNo3qE9rnvK7c--83" edge="1">
          <mxGeometry width="50" height="50" relative="1" as="geometry">
            <mxPoint x="640" y="180" as="sourcePoint" />
            <mxPoint x="631" y="410" as="targetPoint" />
            <Array as="points" />
          </mxGeometry>
        </mxCell>
        <mxCell id="aBO5GnsNo3qE9rnvK7c--86" value="HTTP API" style="text;html=1;align=center;verticalAlign=middle;whiteSpace=wrap;rounded=0;" parent="1" vertex="1">
          <mxGeometry x="627.5" y="260" width="87.5" height="20" as="geometry" />
        </mxCell>
      </root>
    </mxGraphModel>
  </diagram>
</mxfile>
